<svg xmlns="http://www.w3.org/2000/svg" xmlns:xlink="http://www.w3.org/1999/xlink" version="1.1" x="0px" y="0px" viewBox="0 0 100 125" enable-background="new 0 0 100 100" xml:space="preserve" fill="white"><path d="M49.999,5C25.187,5,5,25.186,5,50c0,24.813,20.187,45,45,45s45-20.187,45-45c0-12.021-4.68-23.323-13.181-31.821  C73.321,9.679,62.021,5,49.999,5z M35.088,11.402l13.658,4.862v14.402L32,42.833l-13.696-4.45L17.9,23.91  C22.41,18.372,28.321,14.026,35.088,11.402z M15.269,72.466c-3.817-5.881-6.189-12.781-6.592-20.202l8.853-11.497l13.697,4.451  l6.396,19.686l-8.465,11.65L15.269,72.466z M60.615,90.001c-3.389,0.9-6.945,1.386-10.615,1.386c-3.669,0-7.225-0.486-10.614-1.386  l-8.2-11.972l8.467-11.652H60.35l8.466,11.651L60.615,90.001z M91.323,52.265c-0.402,7.419-2.774,14.32-6.591,20.2l-13.888,4.089  l-8.466-11.652l6.395-19.683l13.699-4.451L91.323,52.265z M81.697,38.383L68,42.833L51.254,30.667V16.265l13.688-4.872  c5.308,2.052,10.18,5.197,14.324,9.341c1.004,1.004,1.948,2.053,2.835,3.138L81.697,38.383z"/></svg>