<svg xmlns="http://www.w3.org/2000/svg" xmlns:xlink="http://www.w3.org/1999/xlink" xml:space="preserve" version="1.1" style="shape-rendering:geometricPrecision;text-rendering:geometricPrecision;image-rendering:optimizeQuality;" viewBox="0 0 95 95" fill="yellow" x="0px" y="0px" fill-rule="evenodd" clip-rule="evenodd"><defs><style type="text/css">
   

   
  </style></defs><g><path class="fil0" d="M37.65 24.26l24.7 0c2.08,0 3.97,0.85 5.34,2.22 1.38,1.38 2.23,3.28 2.23,5.35l0 36.34c0,2.07 -0.85,3.97 -2.22,5.34 -1.38,1.38 -3.27,2.23 -5.35,2.23l-24.7 0c-2.08,0 -3.97,-0.85 -5.34,-2.22 -1.38,-1.38 -2.23,-3.28 -2.23,-5.35l0 -36.34c0,-2.07 0.85,-3.97 2.22,-5.34 1.38,-1.38 3.27,-2.23 5.35,-2.23zm24.7 2.36l-24.7 0c-1.43,0 -2.74,0.59 -3.68,1.53 -0.94,0.94 -1.53,2.25 -1.53,3.68l0 36.34c0,1.43 0.59,2.74 1.53,3.68 0.94,0.94 2.25,1.53 3.68,1.53l24.7 0c1.43,0 2.74,-0.59 3.68,-1.53 0.94,-0.94 1.53,-2.25 1.53,-3.68l0 -36.34c0,-1.43 -0.59,-2.74 -1.53,-3.68 -0.94,-0.94 -2.25,-1.53 -3.68,-1.53z"/></g></svg>